<?xml version="1.0" encoding="utf-8"?>
<!-- Generator: Adobe Illustrator 23.0.4, SVG Export Plug-In . SVG Version: 6.00 Build 0)  -->
<svg version="1.1" id="Layer_1" xmlns="http://www.w3.org/2000/svg" xmlns:xlink="http://www.w3.org/1999/xlink" x="0px" y="0px"
	 viewBox="0 0 46.5 68.4" style="enable-background:new 0 0 46.5 68.4;" xml:space="preserve">
<style type="text/css">
	.st0{fill:#DCDDDD;}
</style>
<path class="st0" d="M38,17.8l-13.3,0c-0.3,0-0.5,0.2-0.5,0.5c-0.5,2.3-2.5,4-4.8,4c-2.3,0-4.4-1.7-4.8-4c-0.1-0.3-0.3-0.5-0.5-0.5
	l-5.3,0c-2.8,0-4.6,3-3.2,5.5L11.6,34c0.2,0.3,0.6,0.4,0.9,0.1c1.7-1.9,5-2.7,7.4-0.3c1.3,1.3,2.1,3.2,1.7,5c-0.5,2-2.1,3.5-4.1,4
	c-0.4,0.1-0.6,0.5-0.4,0.8l3,5.2c1.5,2.4,5,2.4,6.4,0l14.7-25.5C42.6,20.9,40.8,17.8,38,17.8z M30.1,31.3c-1.5,0-2.8-1.3-2.8-2.8
	s1.3-2.8,2.8-2.8s2.8,1.3,2.8,2.8S31.6,31.3,30.1,31.3z"/>
</svg>
